<svg xmlns="http://www.w3.org/2000/svg" xmlns:xlink="http://www.w3.org/1999/xlink" width="966" height="264" viewBox="0 0 966 264">
  <defs>
    <path id="path-1" d="M451.586306,82.122807 C452.304374,82.122807 452.753163,81.8055542 452.932681,81.1710526 C453.112199,80.5365511 452.932681,80.0380103 452.394131,79.6754386 L441.08458,69.8859649 C438.750861,67.8918142 437.584004,65.2631579 437.584004,62 C437.584004,58.7368421 438.750861,56.1081858 441.08458,54.1140351 L452.394131,44.3245614 C452.932681,43.9619897 453.112199,43.4634489 452.932681,42.8289474 C452.753163,42.1944458 452.304374,41.877193 451.586306,41.877193 L436.776179,40.7894737 C433.724397,40.6081858 431.256041,39.2032178 429.371116,36.5745614 C427.486191,33.945905 426.90276,31.0906419 427.620828,28.0087719 L431.121404,13.3245614 C431.300922,12.7807018 431.121404,12.2821651 430.582853,11.8289474 C430.044303,11.3757296 429.505753,11.3304107 428.967203,11.6929825 L416.311277,19.5789474 C413.618527,21.3918142 410.746259,21.799709 407.694476,20.8026316 C404.642694,19.8055542 402.578251,17.7660805 401.501151,14.6842105 L395.846375,0.815789474 C395.666857,0.271929825 395.218068,0 394.5,0 C393.781932,0 393.333143,0.271929825 393.153625,0.815789474 L387.498849,14.6842105 C386.421749,17.7660805 384.357306,19.8055542 381.305524,20.8026316 C378.253741,21.799709 375.381473,21.3918142 372.688723,19.5789474 L360.032797,11.6929825 C359.494247,11.3304107 358.955697,11.3757296 358.417147,11.8289474 C357.878596,12.2821651 357.699078,12.7807018 357.878596,13.3245614 L361.379172,28.0087719 C362.09724,31.0906419 361.55869,33.945905 359.763522,36.5745614 C357.968353,39.2032178 355.455121,40.6081858 352.223821,40.7894737 L337.413694,41.877193 C336.695626,41.877193 336.246837,42.1944458 336.067319,42.8289474 C335.887801,43.4634489 336.067319,43.9619897 336.605869,44.3245614 L347.91542,54.1140351 C350.249139,56.1081858 351.415996,58.7368421 351.415996,62 C351.415996,65.2631579 350.249139,67.8918142 347.91542,69.8859649 L336.605869,79.6754386 C336.067319,80.0380103 335.887801,80.5365511 336.067319,81.1710526 C336.246837,81.8055542 336.695626,82.122807 337.413694,82.122807 L352.223821,83.2105263 C355.275603,83.3918142 357.743959,84.7967822 359.628884,87.4254386 C361.513809,90.054095 362.09724,92.9093581 361.379172,95.9912281 L357.878596,110.675439 C357.699078,111.219298 357.878596,111.717835 358.417147,112.171053 C358.955697,112.62427 359.494247,112.669589 360.032797,112.307018 L372.688723,104.421053 C375.381473,102.608186 378.253741,102.200291 381.305524,103.197368 C384.357306,104.194446 386.421749,106.23392 387.498849,109.315789 L393.153625,123.184211 C393.333143,123.72807 393.781932,124 394.5,124 C395.218068,124 395.666857,123.72807 395.846375,123.184211 L401.501151,109.315789 C402.578251,106.23392 404.642694,104.194446 407.694476,103.197368 C410.746259,102.200291 413.618527,102.608186 416.311277,104.421053 L428.967203,112.307018 C429.505753,112.669589 430.044303,112.62427 430.582853,112.171053 C431.121404,111.717835 431.300922,111.219298 431.121404,110.675439 L427.620828,95.9912281 C426.90276,92.9093581 427.44131,90.054095 429.236478,87.4254386 C431.031647,84.7967822 433.544879,83.3918142 436.776179,83.2105263 L451.586306,82.122807 Z"/>
    <filter id="filter-2" width="112.8%" height="112.1%" x="-6.4%" y="-4.4%" filterUnits="objectBoundingBox">
      <feMorphology in="SourceAlpha" operator="dilate" radius=".5" result="shadowSpreadOuter1"/>
      <feOffset dy="2" in="shadowSpreadOuter1" result="shadowOffsetOuter1"/>
      <feGaussianBlur in="shadowOffsetOuter1" result="shadowBlurOuter1" stdDeviation="2"/>
      <feComposite in="shadowBlurOuter1" in2="SourceAlpha" operator="out" result="shadowBlurOuter1"/>
      <feColorMatrix in="shadowBlurOuter1" values="0 0 0 0 0   0 0 0 0 0   0 0 0 0 0  0 0 0 0.5 0"/>
    </filter>
    <path id="path-3" d="M738.452261,140 C742.546064,140 746.384004,139.099703 749.96608,137.299107 C753.548157,135.498511 756.559463,133.002232 759,129.810268 C754.355109,130.710565 749.926718,130.219493 745.714824,128.337054 C741.502931,126.454614 738.09799,123.528645 735.5,119.559152 C732.90201,115.589658 731.603015,111.149554 731.603015,106.238839 C731.603015,101.901042 732.665829,97.8701631 734.791457,94.1462054 C736.917085,90.4222476 739.751256,87.537203 743.29397,85.4910714 C741.719431,85.1636899 740.105528,85 738.452261,85 C733.649916,85 729.221524,86.2276786 725.167085,88.6830357 C721.112647,91.1383929 717.904523,94.4735869 715.542714,98.6886161 C713.180905,102.903645 712,107.50744 712,112.5 C712,117.49256 713.180905,122.096355 715.542714,126.311384 C717.904523,130.526413 721.112647,133.861607 725.167085,136.316964 C729.221524,138.772321 733.649916,140 738.452261,140 Z"/>
    <filter id="filter-4" width="133.4%" height="127.3%" x="-16%" y="-10%" filterUnits="objectBoundingBox">
      <feMorphology in="SourceAlpha" operator="dilate" radius=".5" result="shadowSpreadOuter1"/>
      <feOffset dy="2" in="shadowSpreadOuter1" result="shadowOffsetOuter1"/>
      <feGaussianBlur in="shadowOffsetOuter1" result="shadowBlurOuter1" stdDeviation="2"/>
      <feComposite in="shadowBlurOuter1" in2="SourceAlpha" operator="out" result="shadowBlurOuter1"/>
      <feColorMatrix in="shadowBlurOuter1" values="0 0 0 0 0   0 0 0 0 0   0 0 0 0 0  0 0 0 0.5 0"/>
    </filter>
    <path id="path-5" d="M26.4522613,140 C30.5460643,140 34.384004,139.099703 37.9660804,137.299107 C41.5481569,135.498511 44.5594634,133.002232 47,129.810268 C42.3551095,130.710565 37.9267175,130.219493 33.7148241,128.337054 C29.5029307,126.454614 26.0979899,123.528645 23.5,119.559152 C20.9020101,115.589658 19.6030151,111.149554 19.6030151,106.238839 C19.6030151,101.901042 20.6658291,97.8701631 22.7914573,94.1462054 C24.9170854,90.4222476 27.7512563,87.537203 31.2939698,85.4910714 C29.7194311,85.1636899 28.1055276,85 26.4522613,85 C21.6499156,85 17.2215237,86.2276786 13.1670854,88.6830357 C9.11264717,91.1383929 5.90452261,94.4735869 3.54271357,98.6886161 C1.18090452,102.903645 0,107.50744 0,112.5 C0,117.49256 1.18090452,122.096355 3.54271357,126.311384 C5.90452261,130.526413 9.11264717,133.861607 13.1670854,136.316964 C17.2215237,138.772321 21.6499156,140 26.4522613,140 Z"/>
    <filter id="filter-6" width="133.4%" height="127.3%" x="-16%" y="-10%" filterUnits="objectBoundingBox">
      <feMorphology in="SourceAlpha" operator="dilate" radius=".5" result="shadowSpreadOuter1"/>
      <feOffset dy="2" in="shadowSpreadOuter1" result="shadowOffsetOuter1"/>
      <feGaussianBlur in="shadowOffsetOuter1" result="shadowBlurOuter1" stdDeviation="2"/>
      <feComposite in="shadowBlurOuter1" in2="SourceAlpha" operator="out" result="shadowBlurOuter1"/>
      <feColorMatrix in="shadowBlurOuter1" values="0 0 0 0 0   0 0 0 0 0   0 0 0 0 0  0 0 0 0.5 0"/>
    </filter>
  </defs>
  <g id="visual-routine" fill="none" fill-rule="evenodd" stroke="none" stroke-width="1">
    <path id="hour-0" fill="#005FC7" fill-opacity=".7" stroke="#464646" d="M53.5025033,132.462461 C40.6422699,136.393637 27.6420486,140.471599 14.5018408,144.696348 L14.5000148,206.5 L53.5000168,206.5 L53.5025033,132.462461 Z"/>
    <path id="hour-1" fill="#005FC7" fill-opacity=".7" stroke="#464646" d="M91.501366,121.156105 C78.6482021,124.873551 65.6478536,128.744504 52.5,132.769042 L52.5,206.5 L91.500008,206.5 L91.501366,121.156105 Z"/>
    <path id="hour-2" fill="#005FC7" fill-opacity=".7" stroke="#464646" d="M130.50162,110.224815 C117.65449,113.708163 104.654353,117.351941 91.501211,121.156149 L91.5000071,206.5 L130.500008,206.5 L130.50162,110.224815 Z"/>
    <path id="hour-3" fill="#005FC7" fill-opacity=".7" stroke="#464646" d="M169.501924,100.024801 C156.661587,103.256652 143.660658,106.656881 130.49914,110.225488 L130.499996,206.5 L169.500009,206.5 L169.501924,100.024801 Z"/>
    <path id="hour-4" fill="#005FC7" fill-opacity=".7" stroke="#464646" d="M208.501289,90.6126022 C195.670353,93.5729169 182.670499,96.7103326 169.501729,100.02485 L169.500008,206.5 L208.500006,206.5 L208.501289,90.6126022 Z"/>
    <path id="hour-5" fill="#005FC7" fill-opacity=".7" stroke="#464646" d="M247.502899,82.0514223 C234.680825,84.7182631 221.680552,87.5719283 208.502081,90.6124194 L208.500009,206.5 L247.500012,206.5 L247.502899,82.0514223 Z"/>
    <path id="hour-6" fill="#005FC7" fill-opacity=".7" stroke="#464646" d="M286.502326,74.4153148 C273.690739,76.7630908 260.690607,79.3085262 247.501936,82.0516227 L247.500008,206.5 L286.500009,206.5 L286.502326,74.4153148 Z"/>
    <path id="hour-7" fill="#6F929C" stroke="#464646" d="M325.502875,67.7877719 C312.702353,69.7871956 299.701645,71.9964717 286.500755,74.4156028 L286.500003,206.5 L325.50001,206.5 L325.502875,67.7877719 Z"/>
    <path id="hour-8" fill="#B2AF8D" stroke="#464646" d="M364.501713,62.2670316 C351.715064,63.8837305 338.7151,65.7240308 325.501825,67.7879359 L325.500007,206.5 L364.500006,206.5 L364.501713,62.2670316 Z"/>
    <path id="hour-9" fill="#F0B046" fill-opacity=".8" stroke="#464646" d="M403.502778,57.9679147 L400.772134,58.2258256 C388.879164,59.3664057 376.789215,60.7134488 364.502291,62.2669586 L364.500008,206.5 L403.500009,206.5 L403.502778,57.9679147 Z"/>
    <path id="hour-10" fill="#F0B046" fill-opacity=".8" stroke="#464646" d="M442.502995,55.024832 C429.748254,55.748252 416.747905,56.729082 403.501953,57.9673283 L403.500007,206.5 L442.50001,206.5 L442.502995,55.024832 Z"/>
    <path id="hour-11" fill="#F0B046" fill-opacity=".8" stroke="#464646" d="M481.501235,53.602992 C468.767147,53.7985281 455.767369,54.2724924 442.501908,55.0248937 L442.500006,206.5 L481.500004,206.5 L481.501235,53.602992 Z"/>
    <path id="hour-12" fill="#F0B046" fill-opacity=".8" stroke="#464646" d="M481.501822,53.602983 L481.500006,206.5 L520.499996,206.5 L520.498773,53.8807815 C511.849773,53.6269264 503.289341,53.5 494.817478,53.5 C490.411685,53.5 485.973133,53.5343275 481.501822,53.602983 Z"/>
    <path id="hour-13" fill="#F0B046" fill-opacity=".8" stroke="#464646" d="M559.499139,55.8431663 C546.304802,54.9107689 533.304627,54.2566413 520.498614,53.8807768 L520.499995,206.5 L559.499997,206.5 L559.499139,55.8431663 Z"/>
    <path id="hour-14" fill="#F0B046" fill-opacity=".8" stroke="#464646" d="M598.498445,59.3479682 C585.314812,57.9170614 572.314393,56.7487499 559.497189,55.8430285 L559.499991,206.5 L598.499995,206.5 L598.498445,59.3479682 Z"/>
    <path id="hour-15" fill="#F0B046" fill-opacity=".8" stroke="#464646" d="M637.498651,64.2701548 C624.32505,62.3808404 611.324869,60.7401009 598.498111,59.347932 L598.499994,206.5 L637.499995,206.5 L637.498651,64.2701548 Z"/>
    <path id="hour-16" fill="#F0B046" fill-opacity=".8" stroke="#464646" d="M676.498533,70.500481 C663.333404,68.1876349 650.33291,66.1107842 637.497054,64.2699258 L637.49999,206.5 L676.499995,206.5 L676.498533,70.500481 Z"/>
    <path id="hour-17" fill="#B2AF8D" stroke="#464646" d="M715.49905,77.9433181 C702.342875,75.2379062 689.343366,72.7570781 676.500525,70.500831 L676.500002,206.5 L715.499996,206.5 L715.49905,77.9433181 Z"/>
    <path id="hour-18" fill="#6F929C" stroke="#464646" d="M754.499046,86.513808 C741.349038,83.4425803 728.348506,80.5856416 715.497453,77.9429897 L715.49999,206.5 L754.499996,206.5 L754.499046,86.513808 Z"/>
    <path id="hour-19" fill="#005FC7" fill-opacity=".7" stroke="#464646" d="M793.498158,96.1365866 C780.354921,92.723984 767.354579,89.5162427 754.497132,86.5133609 L754.499988,206.5 L793.499992,206.5 L793.498158,96.1365866 Z"/>
    <path id="hour-20" fill="#005FC7" fill-opacity=".7" stroke="#464646" d="M832.498405,106.744948 C819.361151,103.012515 806.360767,99.4763175 793.497258,96.1363527 L793.499988,206.5 L832.499992,206.5 L832.498405,106.744948 Z"/>
    <path id="hour-21" fill="#005FC7" fill-opacity=".7" stroke="#464646" d="M871.498924,118.27836 C858.367214,114.245528 845.366839,110.401001 832.4978,106.744776 L832.499989,206.5 L871.499994,206.5 L871.498924,118.27836 Z"/>
    <path id="hour-22" fill="#005FC7" fill-opacity=".7" stroke="#464646" d="M910.499203,130.682243 C897.37286,126.366625 884.372741,122.23199 871.498849,118.278337 L871.499994,206.5 L910.499995,206.5 L910.499203,130.682243 Z"/>
    <path id="hour-23" fill="#005FC7" fill-opacity=".7" stroke="#464646" d="M949.499035,143.907219 C936.377184,139.32454 923.376839,134.916083 910.498001,130.681848 L910.499987,206.5 L949.499992,206.5 L949.499035,143.907219 Z"/>
    <g id="hour-labels" fill="#FFF" font-family="SFProText-Light, SF Pro Text" font-size="20" font-weight="300" letter-spacing="-.4" transform="translate(13 216)">
      <text id="label-0">
        <tspan x="7.38" y="19">00</tspan>
      </text>
      <text id="label-1" opacity=".547">
        <tspan x="48.182" y="19">01</tspan>
      </text>
      <text id="label-2">
        <tspan x="85.717" y="19">02</tspan>
      </text>
      <text id="label-3" opacity=".547">
        <tspan x="124.488" y="19">03</tspan>
      </text>
      <text id="label-4">
        <tspan x="163.234" y="19">04</tspan>
      </text>
      <text id="label-5" opacity=".547">
        <tspan x="202.507" y="19">05</tspan>
      </text>
      <text id="label-6">
        <tspan x="241.351" y="19">06</tspan>
      </text>
      <text id="label-7" opacity=".547">
        <tspan x="281.211" y="19">07</tspan>
      </text>
      <text id="label-8">
        <tspan x="319.322" y="19">08</tspan>
      </text>
      <text id="label-9" opacity=".547">
        <tspan x="358.351" y="19">09</tspan>
      </text>
      <text id="label-10">
        <tspan x="399.182" y="19">10</tspan>
      </text>
      <text id="label-11" opacity=".547">
        <tspan x="439.984" y="19">11</tspan>
      </text>
      <text id="label-12">
        <tspan x="477.534" y="19">12</tspan>
      </text>
      <text id="label-13" opacity=".547">
        <tspan x="516.319" y="19">13</tspan>
      </text>
      <text id="label-14">
        <tspan x="555.109" y="19">14</tspan>
      </text>
      <text id="label-15" opacity=".547">
        <tspan x="594.338" y="19">15</tspan>
      </text>
      <text id="label-16">
        <tspan x="633.153" y="19">16</tspan>
      </text>
      <text id="label-17" opacity=".547">
        <tspan x="672.773" y="19">17</tspan>
      </text>
      <text id="label-18">
        <tspan x="711.124" y="19">18</tspan>
      </text>
      <text id="label-19" opacity=".547">
        <tspan x="750.153" y="19">19</tspan>
      </text>
      <text id="label-20">
        <tspan x="787.703" y="19">20</tspan>
      </text>
      <text id="label-21" opacity=".547">
        <tspan x="828.475" y="19">21</tspan>
      </text>
      <text id="label-22">
        <tspan x="865.966" y="19">22</tspan>
      </text>
      <text id="label-23" opacity=".547">
        <tspan x="904.781" y="19">23</tspan>
      </text>
    </g>
    <circle id="oval-0" cx="34.5" cy="179.5" r="8.5" fill="#202020" fill-opacity=".2" stroke="#000" stroke-opacity=".162" stroke-width="2"/>
    <circle id="oval-1" cx="73.5" cy="179.5" r="8.5" fill="#202020" fill-opacity=".2" stroke="#000" stroke-opacity=".162" stroke-width="2"/>
    <circle id="oval-2" cx="112.5" cy="179.5" r="8.5" fill="#202020" fill-opacity=".2" stroke="#000" stroke-opacity=".162" stroke-width="2"/>
    <circle id="oval-3" cx="151.5" cy="179.5" r="8.5" fill="#202020" fill-opacity=".2" stroke="#000" stroke-opacity=".162" stroke-width="2"/>
    <circle id="oval-4" cx="190.5" cy="179.5" r="8.5" fill="#202020" fill-opacity=".2" stroke="#000" stroke-opacity=".162" stroke-width="2"/>
    <circle id="oval-5" cx="229.5" cy="179.5" r="8.5" fill="#202020" fill-opacity=".2" stroke="#000" stroke-opacity=".162" stroke-width="2"/>
    <circle id="oval-6" cx="268.5" cy="179.5" r="8.5" fill="#202020" fill-opacity=".2" stroke="#000" stroke-opacity=".162" stroke-width="2"/>
    <circle id="oval-7" cx="307.5" cy="179.5" r="8.5" fill="#202020" fill-opacity=".2" stroke="#000" stroke-opacity=".162" stroke-width="2"/>
    <circle id="oval-8" cx="346.5" cy="179.5" r="8.5" fill="#202020" fill-opacity=".2" stroke="#000" stroke-opacity=".162" stroke-width="2"/>
    <circle id="oval-9" cx="385.5" cy="179.5" r="8.5" fill="#202020" fill-opacity=".2" stroke="#000" stroke-opacity=".162" stroke-width="2"/>
    <circle id="oval-10" cx="424.5" cy="179.5" r="8.5" fill="#202020" fill-opacity=".2" stroke="#000" stroke-opacity=".162" stroke-width="2"/>
    <circle id="oval-11" cx="463.5" cy="179.5" r="8.5" fill="#202020" fill-opacity=".2" stroke="#000" stroke-opacity=".162" stroke-width="2"/>
    <circle id="oval-12" cx="501.5" cy="179.5" r="8.5" fill="#202020" fill-opacity=".2" stroke="#000" stroke-opacity=".162" stroke-width="2"/>
    <circle id="oval-13" cx="540.5" cy="179.5" r="8.5" fill="#202020" fill-opacity=".2" stroke="#000" stroke-opacity=".162" stroke-width="2"/>
    <circle id="oval-14" cx="579.5" cy="179.5" r="8.5" fill="#202020" fill-opacity=".2" stroke="#000" stroke-opacity=".162" stroke-width="2"/>
    <circle id="oval-15" cx="618.5" cy="179.5" r="8.5" fill="#202020" fill-opacity=".2" stroke="#000" stroke-opacity=".162" stroke-width="2"/>
    <circle id="oval-16" cx="657.5" cy="179.5" r="8.5" fill="#202020" fill-opacity=".2" stroke="#000" stroke-opacity=".162" stroke-width="2"/>
    <circle id="oval-17" cx="696.5" cy="179.5" r="8.5" fill="#202020" fill-opacity=".2" stroke="#000" stroke-opacity=".162" stroke-width="2"/>
    <circle id="oval-18" cx="735.5" cy="179.5" r="8.5" fill="#202020" fill-opacity=".2" stroke="#000" stroke-opacity=".162" stroke-width="2"/>
    <circle id="oval-19" cx="774.5" cy="179.5" r="8.5" fill="#202020" fill-opacity=".2" stroke="#000" stroke-opacity=".162" stroke-width="2"/>
    <circle id="oval-20" cx="813.5" cy="179.5" r="8.5" fill="#202020" fill-opacity=".2" stroke="#000" stroke-opacity=".162" stroke-width="2"/>
    <circle id="oval-21" cx="852.5" cy="179.5" r="8.5" fill="#202020" fill-opacity=".2" stroke="#000" stroke-opacity=".162" stroke-width="2"/>
    <circle id="oval-22" cx="891.5" cy="179.5" r="8.5" fill="#202020" fill-opacity=".2" stroke="#000" stroke-opacity=".162" stroke-width="2"/>
    <circle id="oval-23" cx="930.5" cy="179.5" r="8.5" fill="#202020" fill-opacity=".2" stroke="#000" stroke-opacity=".162" stroke-width="2"/>
    <g id="symbols" opacity=".287" transform="translate(107)">
      <g id="sun-1">
        <use fill="#000" filter="url(#filter-2)" xlink:href="#path-1"/>
        <use fill="#FFF" xlink:href="#path-1"/>
      </g>
      <g id="moon-2">
        <use fill="#000" filter="url(#filter-4)" xlink:href="#path-3"/>
        <use fill="#FFF" xlink:href="#path-3"/>
      </g>
      <g id="moon-1">
        <use fill="#000" filter="url(#filter-6)" xlink:href="#path-5"/>
        <use fill="#FFF" xlink:href="#path-5"/>
      </g>
    </g>
    <g id="lines" stroke-linecap="square" transform="translate(12 51)">
      <line id="line-now" x1="327" x2="327" y1="1" y2="157" stroke="#C8C8C8"/>
      <line id="line-start" x1="1" x2="1" y1="89.5" y2="213.164" stroke="#979797"/>
      <line id="line-end" x1="938" x2="938" y1="88.5" y2="212.164" stroke="#979797"/>
    </g>
  </g>
</svg>
